<svg id="Layer_1" data-name="Layer 1" xmlns="http://www.w3.org/2000/svg" viewBox="0 0 769.59 229.81"><defs><style>.cls-1{fill:#210a54;}</style></defs><path class="cls-1" d="M305.92,156.31c0,11.4-3.21,20.22-9.51,26.24-5.79,5.52-14.16,8.44-24.19,8.44s-18.44-2.93-24.25-8.46c-6.34-6-9.56-14.86-9.55-26.24l0-68.78H217L217,158c0,16.84,5.75,30.74,16.64,40.18,9.72,8.44,23.42,13.08,38.59,13.09s28.81-4.63,38.55-13.06c10.93-9.45,16.71-23.34,16.72-40.17l0-70.53H305.94Z"/><path class="cls-1" d="M405.94,85.19a56.07,56.07,0,0,0-22.37,4.45,43.44,43.44,0,0,0-16.2,12.07V87.56H346.06L346,209h21.57l0-68.27c0-10.38,3.56-19.24,10.27-25.61,6.34-6,15.1-9.32,24.68-9.32,20.85,0,32.81,12.56,32.8,34.45l0,68.78h21.44l0-74.92C456.8,104.85,436.37,85.2,405.94,85.19Z"/><path class="cls-1" d="M572.53,102.87c-10.39-11.55-24.81-17.63-41.95-17.63-34.57,0-60.65,27.07-60.66,63s26.05,63.15,60.61,63.16c17.23,0,31.65-6,42-17.57V209h21.44L594,25.89H572.56Zm-10.38,76a41.43,41.43,0,0,1-59-.25c-7.36-7.87-11.41-18.66-11.4-30.37s4-22.43,11.33-30.26c7.49-8,18.06-12.44,29.76-12.43a39.87,39.87,0,0,1,29.35,12.23c7.39,7.82,11.46,18.65,11.46,30.49S569.55,171,562.15,178.86Z"/><rect class="cls-1" x="616.09" y="25.9" width="21.56" height="183.15"/><path class="cls-1" d="M753.35,102.87C743,91.55,728.5,85.31,712.49,85.31c-16.83,0-32.15,6.26-43.13,17.66s-17.15,27.62-17.16,45.45c0,37.11,25.22,63,61.37,63,20.41,0,36.2-6,49.69-18.9l.91-.87-11.72-14.95-1.1,1a53.64,53.64,0,0,1-36.65,14.53c-10.62,0-20-3.27-27.11-9.44s-11.84-15.44-13.28-26.51l94.75,0,.14-1.23a63.29,63.29,0,0,0,.39-7.17h0C769.48,130.22,763.71,114.2,753.35,102.87ZM674.63,138.4c1.65-9.76,5.72-18,11.8-23.87,6.64-6.41,15.51-9.79,25.67-9.79,9.53,0,17.91,3.3,24.24,9.52,6,6,9.93,14.29,11.26,24.17Z"/><path class="cls-1" d="M184.54,112.89c-8.71-8.36-19.81-14.84-33-19.27-3.48-1.17-7.13-2.2-10.84-3.07,5.57-18.3,6.6-34.78,3.07-49A55.22,55.22,0,0,0,92.41,0,53.55,53.55,0,0,0,42.3,30.21c-7.51,15.65-7.68,33-7.84,48.37v.35c-.09,9.23-.05,18.59.13,28.62C24.26,113.61,16.74,120,11,127.53,1.89,139.35-1.8,153.51.83,166.39c2.24,11,9.06,20.06,18.25,24.29A34.25,34.25,0,0,0,37,193.32c-1.92,16-8.78,22.22-10.16,23.33l-.49.4,16.88,12.76.3-.33A48,48,0,0,0,50,220.61c5.23-9.24,8-20.43,8.38-33.27,1.06-.44,2.13-.9,3.19-1.37a105.66,105.66,0,0,0,26,16.11,126.83,126.83,0,0,0,36.18,9.79c23.87,2.73,47.05-3.39,62-16.38a50.83,50.83,0,0,0,17.41-37.65,61.26,61.26,0,0,0-18.62-44.95Zm-64.7-25.5c-1.49-.11-3-.21-4.5-.28a145.2,145.2,0,0,0-60,10.35c0-6.25,0-12.41,0-18.32v-.35c.14-13.81.28-28.09,5.79-39.55A32.8,32.8,0,0,1,90.59,20.85l1.12,0A34.41,34.41,0,0,1,123.54,46.6C126.33,57.83,125.08,71.55,119.84,87.39Zm-8.45,20.45a138.52,138.52,0,0,1-24.18,34.82,110.72,110.72,0,0,1-29.7,22.14c-.6-12.47-1.34-28.66-1.78-44.81A125.72,125.72,0,0,1,111.39,107.84Zm14.74,83.31c-16.35-1.87-32.23-7.65-44.82-16.28a135.48,135.48,0,0,0,20.91-17.74,162,162,0,0,0,31.05-46.85c15.57,3.2,28,9.14,36.83,17.65a40.07,40.07,0,0,1,12.22,29.4,30,30,0,0,1-10.25,22.42C159.58,190.61,140.15,192.76,126.13,191.15ZM27.49,140.22a47.67,47.67,0,0,1,7.76-7.9c.5,14.15,1.16,28.08,1.75,39.94-3.92.69-6.94.52-9.21-.53h0c-3.08-1.41-5.64-5.14-6.53-9.51C19.86,155.36,22.19,147.14,27.49,140.22Z"/></svg>